<svg width="84" height="22" viewBox="0 0 84 22" fill="none" xmlns="http://www.w3.org/2000/svg">
<path d="M16.25 17.023C14.8853 17.023 14.203 16.8697 14.203 16.563L13.72 7.34L10.914 16.678C10.8527 16.862 10.3313 16.954 9.35 16.954C8.36867 16.954 7.86267 16.8697 7.832 16.701L4.934 7.248L4.612 16.425C4.59667 16.655 4.30533 16.816 3.738 16.908C3.17067 16.9847 2.69533 17.023 2.312 17.023C1.944 17.023 1.58367 17 1.231 16.954C0.495 16.8467 0.134667 16.655 0.15 16.379L0.679 1.429C0.679 1.061 1.61433 0.876999 3.485 0.876999C4.037 0.876999 4.71167 0.922999 5.509 1.015C6.30633 1.09167 6.751 1.25267 6.843 1.498L9.419 8.743L11.673 1.475C11.811 1.07633 12.869 0.876999 14.847 0.876999C15.4143 0.876999 16.089 0.922999 16.871 1.015C17.6683 1.09167 18.067 1.23733 18.067 1.452L18.734 16.54C18.734 16.7087 18.435 16.8313 17.837 16.908C17.239 16.9847 16.71 17.023 16.25 17.023ZM20.0962 5.615C20.0962 5.44633 20.7939 5.362 22.1892 5.362C23.5999 5.362 24.3282 5.43867 24.3742 5.592L26.0302 11.02L27.6172 5.546C27.6785 5.42333 28.1539 5.362 29.0432 5.362C31.0825 5.362 32.0562 5.46167 31.9642 5.661L26.5592 21.048C26.5439 21.14 26.1222 21.186 25.2942 21.186C24.4815 21.186 23.7225 21.1553 23.0172 21.094C22.3119 21.048 21.9745 20.9867 22.0052 20.91L24.0062 16.08L20.0962 5.615ZM39.7057 17.046C38.3104 17.046 37.6127 16.8927 37.6127 16.586V1.682C37.6127 1.16067 37.8504 0.899999 38.3257 0.899999H42.3737C44.643 0.899999 46.276 1.36767 47.2727 2.303C48.2847 3.23833 48.7907 4.59533 48.7907 6.374C48.7907 7.846 48.3154 9.19533 47.3647 10.422C46.8894 11.0353 46.1917 11.526 45.2717 11.894C44.3517 12.262 43.2784 12.446 42.0517 12.446V16.563C42.0517 16.747 41.7604 16.8773 41.1777 16.954C40.6104 17.0153 40.1197 17.046 39.7057 17.046ZM42.0517 4.902V8.536H42.3507C42.8874 8.536 43.3397 8.36733 43.7077 8.03C44.0757 7.69267 44.2597 7.21733 44.2597 6.604C44.2597 5.99067 44.1294 5.55367 43.8687 5.293C43.6234 5.03233 43.1787 4.902 42.5347 4.902H42.0517ZM51.5719 8.651C51.1426 7.88433 50.9279 7.26333 50.9279 6.788C50.9279 6.29733 51.0582 5.983 51.3189 5.845C52.1929 5.46167 53.3889 5.27 54.9069 5.27C56.4402 5.27 57.5212 5.63033 58.1499 6.351C58.7786 7.05633 59.0929 8.10667 59.0929 9.502V13.136H59.8749C60.1356 13.136 60.3349 13.2893 60.4729 13.596C60.6262 13.9027 60.7029 14.3243 60.7029 14.861C60.7029 15.3977 60.5649 15.9267 60.2889 16.448C60.0282 16.9693 59.6679 17.23 59.2079 17.23C58.3799 17.23 57.7129 17.0077 57.2069 16.563C56.9769 16.379 56.8006 16.1567 56.6779 15.896C55.9726 16.7853 54.8762 17.23 53.3889 17.23C52.2696 17.23 51.3266 16.8313 50.5599 16.034C49.7932 15.2367 49.4099 14.2937 49.4099 13.205C49.4099 10.7057 50.9049 9.456 53.8949 9.456H55.1599V9.226C55.1599 8.82733 55.0909 8.57433 54.9529 8.467C54.8302 8.34433 54.5312 8.283 54.0559 8.283C53.4732 8.283 52.6452 8.40567 51.5719 8.651ZM53.4119 12.883C53.4119 13.2203 53.5039 13.481 53.6879 13.665C53.8719 13.8337 54.1019 13.918 54.3779 13.918C54.6692 13.918 54.9299 13.803 55.1599 13.573V11.802H54.5159C53.7799 11.802 53.4119 12.1623 53.4119 12.883ZM66.2367 17C64.7494 17 63.5994 16.5247 62.7867 15.574C61.9741 14.608 61.5677 13.1897 61.5677 11.319C61.5677 9.433 62.0967 7.961 63.1547 6.903C64.2281 5.82967 65.6464 5.293 67.4097 5.293C69.1884 5.293 70.6527 5.684 71.8027 6.466V17.92C71.8027 19.0547 71.3427 19.921 70.4227 20.519C69.5027 21.1323 68.3221 21.439 66.8807 21.439C65.4394 21.439 64.1514 21.255 63.0167 20.887C62.8634 20.519 62.7867 20.1893 62.7867 19.898C62.7867 18.9167 62.9477 18.196 63.2697 17.736C64.2971 18.1807 65.3934 18.403 66.5587 18.403C67.4021 18.403 67.8237 18.104 67.8237 17.506V16.816C67.1644 16.9387 66.6354 17 66.2367 17ZM67.2947 9.042C66.2674 9.042 65.7537 9.81633 65.7537 11.365C65.7537 12.331 65.9531 12.9597 66.3517 13.251C66.6124 13.4503 66.8731 13.55 67.1337 13.55C67.3944 13.55 67.6244 13.527 67.8237 13.481V9.111C67.6397 9.065 67.4634 9.042 67.2947 9.042ZM82.5581 16.379C81.5921 16.9463 80.3501 17.23 78.8321 17.23C77.3141 17.23 76.0338 16.7163 74.9911 15.689C73.9484 14.6463 73.4271 13.2127 73.4271 11.388C73.4271 9.548 73.9254 8.06833 74.9221 6.949C75.9341 5.82967 77.2068 5.27 78.7401 5.27C80.2734 5.27 81.4541 5.661 82.2821 6.443C83.1254 7.225 83.5471 8.17567 83.5471 9.295C83.5471 11.779 82.1211 13.021 79.2691 13.021H77.6821C77.6821 13.481 77.8048 13.803 78.0501 13.987C78.3108 14.1557 78.6864 14.24 79.1771 14.24C80.2504 14.24 81.2701 13.9947 82.2361 13.504C82.2514 13.4887 82.3204 13.596 82.4431 13.826C82.8111 14.4853 82.9951 15.045 82.9951 15.505C82.9951 15.9497 82.8494 16.241 82.5581 16.379ZM79.6831 9.732C79.6831 9.088 79.3688 8.766 78.7401 8.766C78.4488 8.766 78.1958 8.858 77.9811 9.042C77.7818 9.21067 77.6821 9.46367 77.6821 9.801V10.514H78.9241C79.4301 10.514 79.6831 10.2533 79.6831 9.732Z" fill="#7E7DFD"/>
</svg>
