<svg width="67" height="22" viewBox="0 0 67 22" fill="none" xmlns="http://www.w3.org/2000/svg">
<path d="M0.92 15.643V1.337C0.92 1.015 1.69433 0.853999 3.243 0.853999C4.807 0.853999 5.589 1.015 5.589 1.337V12.607H9.131C9.407 12.607 9.59867 12.9673 9.706 13.688C9.752 14.0407 9.775 14.401 9.775 14.769C9.775 15.137 9.752 15.5127 9.706 15.896C9.58333 16.632 9.384 17 9.108 17H2.024C1.68667 17 1.41833 16.862 1.219 16.586C1.01967 16.31 0.92 15.9957 0.92 15.643ZM12.0191 15.643C11.0685 14.585 10.5931 13.1207 10.5931 11.25C10.5931 9.37933 11.0685 7.915 12.0191 6.857C12.9851 5.799 14.2808 5.27 15.9061 5.27C17.5315 5.27 18.8195 5.799 19.7701 6.857C20.7208 7.915 21.1961 9.37933 21.1961 11.25C21.1961 13.1207 20.7208 14.585 19.7701 15.643C18.8195 16.701 17.5315 17.23 15.9061 17.23C14.2808 17.23 12.9851 16.701 12.0191 15.643ZM15.9061 9.111C15.0475 9.111 14.6181 9.81633 14.6181 11.227C14.6181 12.6377 15.0475 13.343 15.9061 13.343C16.7801 13.343 17.2171 12.6377 17.2171 11.227C17.2171 9.81633 16.7801 9.111 15.9061 9.111ZM27.0541 17C25.5668 17 24.4168 16.5247 23.6041 15.574C22.7914 14.608 22.3851 13.1897 22.3851 11.319C22.3851 9.433 22.9141 7.961 23.9721 6.903C25.0454 5.82967 26.4638 5.293 28.2271 5.293C30.0058 5.293 31.4701 5.684 32.6201 6.466V17.92C32.6201 19.0547 32.1601 19.921 31.2401 20.519C30.3201 21.1323 29.1394 21.439 27.6981 21.439C26.2568 21.439 24.9688 21.255 23.8341 20.887C23.6808 20.519 23.6041 20.1893 23.6041 19.898C23.6041 18.9167 23.7651 18.196 24.0871 17.736C25.1144 18.1807 26.2108 18.403 27.3761 18.403C28.2194 18.403 28.6411 18.104 28.6411 17.506V16.816C27.9818 16.9387 27.4528 17 27.0541 17ZM28.1121 9.042C27.0848 9.042 26.5711 9.81633 26.5711 11.365C26.5711 12.331 26.7704 12.9597 27.1691 13.251C27.4298 13.4503 27.6904 13.55 27.9511 13.55C28.2118 13.55 28.4418 13.527 28.6411 13.481V9.111C28.4571 9.065 28.2808 9.042 28.1121 9.042ZM35.6705 15.643C34.7198 14.585 34.2445 13.1207 34.2445 11.25C34.2445 9.37933 34.7198 7.915 35.6705 6.857C36.6365 5.799 37.9322 5.27 39.5575 5.27C41.1828 5.27 42.4708 5.799 43.4215 6.857C44.3722 7.915 44.8475 9.37933 44.8475 11.25C44.8475 13.1207 44.3722 14.585 43.4215 15.643C42.4708 16.701 41.1828 17.23 39.5575 17.23C37.9322 17.23 36.6365 16.701 35.6705 15.643ZM39.5575 9.111C38.6988 9.111 38.2695 9.81633 38.2695 11.227C38.2695 12.6377 38.6988 13.343 39.5575 13.343C40.4315 13.343 40.8685 12.6377 40.8685 11.227C40.8685 9.81633 40.4315 9.111 39.5575 9.111ZM46.3585 5.638C46.3585 5.46933 47.0178 5.385 48.3365 5.385C49.6551 5.385 50.3145 5.46933 50.3145 5.638V12.354C50.3145 13.1207 50.5598 13.504 51.0505 13.504C51.4185 13.504 51.8325 13.343 52.2925 13.021V5.638C52.2925 5.48467 52.9441 5.408 54.2475 5.408C55.5508 5.408 56.2025 5.48467 56.2025 5.638V13.182H56.8005C57.3218 13.182 57.5825 13.6803 57.5825 14.677C57.5825 15.183 57.4751 15.6967 57.2605 16.218C56.9538 16.8927 56.5398 17.23 56.0185 17.23C54.9911 17.23 54.2321 16.8083 53.7415 15.965L53.7185 15.988C52.7831 16.816 51.7788 17.23 50.7055 17.23C49.2181 17.23 48.1218 16.862 47.4165 16.126C46.7111 15.3747 46.3585 14.1403 46.3585 12.423V5.638ZM64.2742 16.862C64.2742 17.046 63.6302 17.138 62.3422 17.138C60.8089 17.0767 60.0422 16.977 60.0422 16.839V8.697H58.8692C58.5626 8.697 58.4092 8.168 58.4092 7.11C58.4092 6.834 58.4322 6.49667 58.4782 6.098C58.5396 5.69933 58.6546 5.5 58.8232 5.5H60.0422V3.476C60.0422 3.16933 60.6862 3.016 61.9742 3.016C63.2776 3.016 63.9292 3.13867 63.9292 3.384V4.856L63.9522 5.5H65.9072C66.1679 5.5 66.2982 6.03667 66.2982 7.11C66.2982 8.18333 66.1679 8.72 65.9072 8.72H64.2742V16.862Z" fill="#7E7DFD"/>
</svg>
